<svg width="25" height="18" viewBox="0 0 25 18" fill="none" xmlns="http://www.w3.org/2000/svg">
<path d="M21.2975 1.492C19.7675 0.802004 18.1275 0.292004 16.4125 0.00200412C16.3972 -0.000927963 16.3814 0.000961578 16.3672 0.00741145C16.3531 0.0138613 16.3413 0.0245524 16.3335 0.0380041C16.1235 0.407004 15.8895 0.888004 15.7255 1.268C13.9066 0.996241 12.0574 0.996241 10.2385 1.268C10.0558 0.846865 9.84981 0.436228 9.62146 0.0380041C9.61372 0.0243868 9.60201 0.0134539 9.5879 0.00666425C9.57378 -0.00012538 9.55793 -0.00244886 9.54246 4.02814e-06C7.82846 0.290004 6.18846 0.800004 4.65746 1.491C4.64429 1.49653 4.63312 1.50595 4.62546 1.518C1.51346 6.093 0.660461 10.555 1.07946 14.961C1.08063 14.9718 1.08398 14.9822 1.08931 14.9917C1.09464 15.0011 1.10183 15.0094 1.11046 15.016C2.92685 16.3384 4.9528 17.3458 7.10346 17.996C7.11845 18.0006 7.13449 18.0006 7.14947 17.996C7.16446 17.9913 7.1777 17.9823 7.18746 17.97C7.64946 17.35 8.06146 16.695 8.41346 16.007C8.43446 15.967 8.41446 15.919 8.37246 15.903C7.72647 15.6597 7.10055 15.3662 6.50046 15.025C6.48968 15.0188 6.48059 15.0101 6.47402 14.9996C6.46744 14.989 6.46359 14.977 6.46279 14.9647C6.462 14.9523 6.4643 14.9399 6.46947 14.9286C6.47465 14.9173 6.48255 14.9075 6.49246 14.9C6.61846 14.807 6.74446 14.71 6.86446 14.613C6.87526 14.6043 6.88827 14.5987 6.90205 14.597C6.91582 14.5952 6.92981 14.5973 6.94246 14.603C10.8695 16.367 15.1225 16.367 19.0035 14.603C19.0161 14.5969 19.0303 14.5946 19.0443 14.5962C19.0582 14.5978 19.0715 14.6032 19.0825 14.612C19.2025 14.71 19.3275 14.807 19.4545 14.9C19.4645 14.9073 19.4725 14.917 19.4778 14.9282C19.4832 14.9394 19.4857 14.9517 19.4851 14.9641C19.4845 14.9765 19.4808 14.9885 19.4744 14.9992C19.468 15.0098 19.4591 15.0187 19.4485 15.025C18.8505 15.369 18.2285 15.66 17.5755 15.902C17.5654 15.9056 17.5563 15.9114 17.5487 15.9188C17.541 15.9263 17.5351 15.9353 17.5312 15.9452C17.5273 15.9552 17.5256 15.9658 17.5262 15.9765C17.5267 15.9871 17.5296 15.9975 17.5345 16.007C17.8945 16.694 18.3065 17.348 18.7595 17.969C18.7689 17.9817 18.782 17.9913 18.797 17.9963C18.8121 18.0013 18.8283 18.0015 18.8435 17.997C20.9978 17.3486 23.0271 16.3408 24.8455 15.016C24.8543 15.0098 24.8618 15.0018 24.8673 14.9925C24.8728 14.9831 24.8763 14.9728 24.8775 14.962C25.3775 9.868 24.0395 5.442 21.3285 1.52C21.3218 1.50726 21.3108 1.49732 21.2975 1.492ZM9.00046 12.278C7.81846 12.278 6.84346 11.209 6.84346 9.898C6.84346 8.586 7.79946 7.518 9.00046 7.518C10.2105 7.518 11.1765 8.595 11.1575 9.898C11.1575 11.21 10.2015 12.278 9.00046 12.278ZM16.9755 12.278C15.7925 12.278 14.8185 11.209 14.8185 9.898C14.8185 8.586 15.7735 7.518 16.9755 7.518C18.1855 7.518 19.1515 8.595 19.1325 9.898C19.1325 11.21 18.1865 12.278 16.9755 12.278Z" fill="#587BE0"/>
</svg>
