<svg width="24" height="20" viewBox="0 0 24 20" fill="none" xmlns="http://www.w3.org/2000/svg">
<path d="M23.6235 2.937C22.7885 3.307 21.8915 3.557 20.9485 3.67C21.9215 3.08779 22.6494 2.17147 22.9965 1.092C22.0823 1.63499 21.0818 2.0172 20.0385 2.222C19.3369 1.47287 18.4075 0.976327 17.3948 0.809475C16.3821 0.642623 15.3426 0.814792 14.4377 1.29925C13.5329 1.78371 12.8133 2.55336 12.3906 3.4887C11.968 4.42405 11.866 5.47275 12.1005 6.472C10.2482 6.379 8.43611 5.89755 6.7819 5.05891C5.1277 4.22026 3.66832 3.04316 2.49848 1.604C2.09848 2.294 1.86848 3.094 1.86848 3.946C1.86803 4.713 2.05691 5.46824 2.41836 6.14473C2.7798 6.82122 3.30264 7.39804 3.94048 7.824C3.20076 7.80046 2.47735 7.60058 1.83048 7.241V7.301C1.83041 8.37674 2.20251 9.41938 2.88366 10.252C3.56481 11.0846 4.51305 11.6559 5.56748 11.869C4.88126 12.0547 4.16182 12.0821 3.46348 11.949C3.76098 12.8746 4.34048 13.684 5.12085 14.2639C5.90122 14.8438 6.8434 15.1652 7.81548 15.183C6.16531 16.4784 4.12737 17.1811 2.02948 17.178C1.65786 17.1781 1.28656 17.1564 0.91748 17.113C3.04696 18.4822 5.52582 19.2088 8.05748 19.206C16.6275 19.206 21.3125 12.108 21.3125 5.952C21.3125 5.752 21.3075 5.55 21.2985 5.35C22.2098 4.69097 22.9964 3.8749 23.6215 2.94L23.6235 2.937Z" fill="#587BE0"/>
</svg>
